<svg xmlns="http://www.w3.org/2000/svg" xmlns:xlink="http://www.w3.org/1999/xlink" version="1.0" x="0px" y="0px" viewBox="0 0 100 125" enable-background="new 0 0 100 100" xml:space="preserve"><path d="M40.83,90c-6.892,0-12.497-5.608-12.497-12.5c0-6.888,5.605-12.497,12.5-12.5h5.834V53.333H22.5  c-6.895,0-12.5-5.605-12.5-12.5s5.605-12.5,12.5-12.5h24.167V22.5c0-6.888,5.605-12.5,12.5-12.5c6.891,0,12.5,5.605,12.5,12.5  S66.058,35,59.167,35h-5.834v11.667H77.5c6.892,0,12.5,5.605,12.5,12.5c0,6.891-5.608,12.5-12.5,12.5H53.333V77.5  C53.333,84.392,47.725,90,40.83,90z M40.833,71.667C37.617,71.67,35,74.287,35,77.5c0,3.216,2.614,5.833,5.83,5.833  c3.22,0,5.837-2.617,5.837-5.833v-5.833H40.833z M53.333,65H77.5c3.216,0,5.833-2.617,5.833-5.833c0-3.217-2.617-5.834-5.833-5.834  H53.333V65z M22.5,35c-3.216,0-5.833,2.617-5.833,5.833c0,3.217,2.617,5.834,5.833,5.834h24.167V35H22.5z M53.333,28.333h5.834  c3.216,0,5.833-2.617,5.833-5.833s-2.617-5.833-5.833-5.833c-3.217,0-5.834,2.617-5.834,5.833V28.333z"/></svg>