<svg viewBox="-1.4 -1 9 9" xmlns="http://www.w3.org/2000/svg">
  <circle cx="3" cy="3.5" r="4" stroke="black" stroke-width="0" fill="#999999" />
  <polygon class="c" points="6 4 6 2 6 2"></polygon>
  <polygon class="d" points="0 2 0 4 0 4"></polygon>
  <polygon class="b" points="0 4 3 6 3 6"></polygon>
  <polygon class="f" points="0 4 3 6 6 2"></polygon>
  <polygon class="e" points="0 4 6 4 6 4"></polygon>
  <polygon class="d" points="3 6 0 2 3 6"></polygon>
  <polygon class="a" points="3 6 0 2 3 0"></polygon>
  <polygon class="b" points="0 2 6 4 0 4"></polygon>
  <polygon class="f" points="0 2 0 2 3 0"></polygon>
  <polygon class="f" points="6 2 0 2 3 6"></polygon>
  <polygon class="e" points="6 2 0 4 6 2"></polygon>
  <polygon class="d" points="3 6 0 4 0 4"></polygon>
  <style>
    .a { fill: rgb(235, 217, 0); fill-opacity: 0; }
    .b { fill: rgb(255, 162, 159); fill-opacity: 0.02; }
    .c { fill: rgb(255, 192, 203); fill-opacity: 0.3; }
    .d { fill: rgb(149, 126, 165); fill-opacity: 0.02; }
    .e { fill: rgb(192, 0, 135); fill-opacity: 0.57; }
    .f { fill: rgb(0, 0, 0); fill-opacity: 0.39; }
  </style>

</svg>